# xmcd
# Copyright (C) 1995-1998 Ti Kan
#
# Track frame offsets:
#       150
#       31542
#       59711
#       86009
#       107297
#       138050
#       163756
#       191889
#       226784
#       252312
#       279186
#       312911
#
# Disc length: 4628 seconds
#
# Revision: 0
# Processed by: cddbd v1.5.2PL0 Copyright (c) Steve Scherf et al.
# Submitted via: CD-Transfer v1.0
#
DISCID=9512120c
DTITLE=Clubbing - 
DYEAR=12
DGENRE=
TTITLE0=Que Hacer (Denny Derano Mix)
TTITLE1=Jack To The Sound Of The Underground (Original Mix)
TTITLE2=212 (Tommie Sunshine and Disco Fries Mix)
TTITLE3=Rattle (Original Mix)
TTITLE4=Molly (Original Mix)
TTITLE5=Sway, The (Quien Serra) (Original Mix)
TTITLE6=Move That Body (Lissat and Voltax Remix)
TTITLE7=Race, The (Original Mix)
TTITLE8=Tha Music (Original Mix)
TTITLE9=M.u.s.i.c. ((Original Mix)
TTITLE10=Fierce (Original Mix)
TTITLE11=Selected (D. Ramirez Tekno Disco Remix)
EXTD=
EXTT0=
EXTT1=
EXTT2=
EXTT3=
EXTT4=
EXTT5=
EXTT6=
EXTT7=
EXTT8=
EXTT9=
EXTT10=
EXTT11=
PLAYORDER=
